<svg xmlns="http://www.w3.org/2000/svg" xmlns:xlink="http://www.w3.org/1999/xlink" version="1.1" x="0px" y="0px" viewBox="0 0 100 100" enable-background="new 0 0 100 100" xml:space="preserve"><path fill="#E2E8F0" d="M83.7,26.3H36.1c0-0.1,0-0.2,0-0.3v-3.7c0-2.2-1.8-4-4-4H18.4c-2.2,0-4,1.8-4,4v3.7c0,0.2,0,0.4,0.1,0.5  c-3.3,0.8-5.8,3.8-5.8,7.3v38.6c0,4.2,3.4,7.6,7.6,7.6h67.5c4.2,0,7.6-3.4,7.6-7.6V33.8C91.3,29.6,87.9,26.3,83.7,26.3z M18.1,22.2  c0-0.2,0.1-0.3,0.3-0.3h13.7c0.2,0,0.3,0.1,0.3,0.3v3.7c0,0.2-0.1,0.3-0.3,0.3H18.4c-0.2,0-0.3-0.1-0.3-0.3V22.2z M16.3,29.9h2.2  h13.7h51.6c2.1,0,3.9,1.7,3.9,3.9v18H67.8c-0.9-8.9-8.5-15.9-17.6-15.9s-16.7,7-17.6,15.9H12.4v-18C12.4,31.7,14.1,29.9,16.3,29.9z   M64.2,53.7c0,7.7-6.3,14-14,14c-7.7,0-14-6.3-14-14s6.3-14,14-14C57.9,39.6,64.2,45.9,64.2,53.7z M83.7,76.3H16.3  c-2.1,0-3.9-1.7-3.9-3.9V55.5h20.1c0.9,8.9,8.5,15.9,17.6,15.9s16.7-7,17.6-15.9h19.8v16.9C87.6,74.6,85.9,76.3,83.7,76.3z   M50.2,44.7c-4.9,0-8.9,4-8.9,8.9s4,8.9,8.9,8.9s8.9-4,8.9-8.9S55.1,44.7,50.2,44.7z M50.2,58.9c-2.9,0-5.2-2.3-5.2-5.2  c0-2.9,2.3-5.2,5.2-5.2c2.9,0,5.2,2.3,5.2,5.2C55.4,56.6,53,58.9,50.2,58.9z M78.7,37c0-1.1,0.9-2,2-2c1.1,0,2,0.9,2,2  c0,1.1-0.9,2-2,2C79.6,39.1,78.7,38.2,78.7,37z M71.3,37c0-1.1,0.9-2,2-2c1.1,0,2,0.9,2,2c0,1.1-0.9,2-2,2  C72.2,39.1,71.3,38.2,71.3,37z"></path></svg>